<mxfile host="app.diagrams.net" modified="2024-03-18T06:29:35.233Z" agent="Mozilla/5.0 (Macintosh; Intel Mac OS X 10_15_7) AppleWebKit/537.36 (KHTML, like Gecko) Chrome/122.0.0.0 Safari/537.36" version="24.0.7" etag="bQ9QRsMu61MhN_aTdxKn" type="github">
  <diagram name="페이지-1" id="tm9n3C3W999SFPNxYdwT">
    <mxGraphModel>
      <root>
        <mxCell id="0" />
        <mxCell id="1" parent="0" />
      </root>
    </mxGraphModel>
  </diagram>
</mxfile>
